<?xml version="1.0" standalone="no"?>
<!DOCTYPE svg PUBLIC "-//W3C//DTD SVG 20010904//EN"
 "http://www.w3.org/TR/2001/REC-SVG-20010904/DTD/svg10.dtd">
<svg version="1.0" xmlns="http://www.w3.org/2000/svg"
 width="1121.000000pt" height="1280.000000pt" viewBox="0 0 1121.000000 1280.000000"
 preserveAspectRatio="xMidYMid meet">
<g transform="translate(0.000000,1280.000000) scale(0.100000,-0.100000)"
fill="#000000" stroke="none">
<path d="M5609 12476 c-2 -2 -1172 -9 -2599 -16 -1427 -7 -2599 -16 -2603 -20
-4 -4 57 -193 136 -421 257 -737 495 -1460 541 -1639 90 -350 110 -510 95
-749 -5 -86 -12 -166 -15 -178 -7 -36 -40 -28 -128 29 -45 28 -110 71 -146 94
-36 23 -84 51 -108 63 -51 26 -254 81 -297 81 -37 0 -114 -36 -223 -103 l-84
-52 6 -163 c4 -90 9 -191 13 -224 6 -58 7 -60 67 -109 67 -54 246 -146 399
-204 105 -40 431 -197 440 -212 3 -5 -4 -130 -15 -279 -26 -333 -32 -1194 -10
-1459 59 -722 139 -1012 362 -1310 228 -306 625 -584 1167 -815 67 -28 130
-58 140 -65 17 -13 18 -38 18 -416 l0 -403 195 -143 c107 -79 198 -143 202
-143 4 0 79 30 167 66 l158 65 -13 71 c-7 39 -11 75 -8 80 8 13 28 5 223 -89
216 -105 218 -105 224 -89 6 15 35 17 606 46 211 11 388 17 393 14 4 -3 8 -92
8 -199 l0 -194 -60 -41 c-37 -25 -69 -57 -86 -85 -15 -27 -33 -45 -44 -45 -9
0 -123 9 -251 20 -319 26 -493 38 -769 51 l-235 11 -135 -34 c-146 -37 -214
-71 -231 -116 -24 -62 -31 -153 -24 -306 l7 -157 29 -6 c41 -8 44 -18 16 -55
-94 -127 -40 -354 96 -401 150 -53 252 -44 359 30 95 65 114 248 38 363 -16
24 -26 48 -23 53 3 5 26 17 51 28 43 19 54 19 206 8 253 -19 511 -52 511 -66
0 -18 -109 -104 -335 -263 -113 -79 -236 -166 -275 -194 -38 -27 -302 -214
-585 -414 -647 -458 -650 -460 -740 -551 -117 -118 -114 -108 -118 -427 l-3
-270 81 -38 c65 -31 81 -43 86 -64 19 -85 29 -112 55 -154 54 -83 133 -129
259 -147 126 -19 285 22 358 92 100 95 130 290 66 422 -24 49 -26 57 -12 72
215 254 337 390 434 483 134 130 276 243 368 294 33 19 298 141 588 270 l527
236 85 0 c80 0 87 -2 102 -25 19 -28 41 -32 70 -10 15 11 57 15 199 15 99 1
216 5 260 9 l80 8 490 -215 c270 -118 517 -228 550 -245 219 -110 499 -367
784 -722 40 -49 88 -104 107 -120 l35 -31 -28 -49 c-26 -46 -28 -59 -28 -155
0 -92 3 -112 26 -160 57 -122 133 -174 281 -192 206 -26 366 44 428 185 13 28
24 82 28 130 l7 81 55 31 55 30 -3 245 c-2 187 -7 256 -18 293 -18 56 -91 139
-198 226 -39 32 -447 323 -906 646 -459 323 -853 605 -875 626 -24 24 -36 42
-30 47 6 5 159 28 341 52 l331 42 41 -21 41 -21 -22 -47 c-16 -35 -22 -67 -21
-120 0 -62 5 -81 34 -139 46 -89 89 -120 190 -135 177 -27 314 38 350 166 19
68 8 173 -23 229 -24 44 -25 49 -17 138 13 130 12 281 -1 335 -9 34 -25 58
-67 98 -50 48 -65 56 -151 81 -86 25 -110 28 -226 26 -164 -3 -1009 -71 -1082
-87 -18 -4 -28 3 -48 33 -13 20 -47 54 -75 75 l-50 37 0 235 0 235 23 4 c12 3
393 23 847 45 454 22 1388 68 2076 103 1090 54 1257 60 1292 49 40 -14 46 -12
237 54 159 55 195 71 191 84 -3 9 -13 50 -22 91 -9 41 -24 89 -34 105 -10 17
-52 140 -93 275 l-75 245 14 95 c26 168 132 893 193 1325 58 407 82 619 101
890 50 699 -110 1197 -470 1465 -104 77 -207 128 -400 198 -390 142 -1050 412
-1089 445 -15 12 -247 114 -516 225 -465 193 -614 260 -678 305 l-28 19 7 237
c16 561 -47 1020 -193 1410 -49 131 -117 289 -145 337 -44 75 -156 239 -184
270 -16 17 -96 104 -178 193 l-149 161 -672 0 c-369 0 -674 -2 -676 -4z m2371
-3476 c823 -349 1625 -784 1831 -993 227 -230 332 -637 315 -1227 -23 -809
-48 -1270 -68 -1270 -5 0 -55 27 -111 61 -152 90 -351 184 -652 309 -673 279
-999 440 -1165 572 -62 50 -163 174 -222 273 -70 117 -160 369 -197 550 -51
253 -71 621 -52 945 11 188 66 801 77 848 7 32 16 29 244 -68z m-4599 -4583
c18 -42 23 -71 23 -152 1 -58 -3 -101 -9 -103 -13 -4 -98 315 -90 336 9 23 49
-19 76 -81z"/>
</g>
</svg>
